<svg width="45" height="55" viewBox="0 0 45 55" fill="none" xmlns="http://www.w3.org/2000/svg">
<path d="M30.9375 49.5H14.0625V52.25C14.0625 52.9793 13.7662 53.6788 13.2387 54.1945C12.7113 54.7103 11.9959 55 11.25 55H8.4375C7.69158 55 6.97621 54.7103 6.44876 54.1945C5.92132 53.6788 5.625 52.9793 5.625 52.25V49.5C4.13316 49.5 2.70242 48.9205 1.64752 47.8891C0.592632 46.8576 0 45.4587 0 44V5.5C0 2.475 2.53125 0 5.625 0H39.375C40.8668 0 42.2976 0.579463 43.3525 1.61091C44.4074 2.64236 45 4.04131 45 5.5V44C45 45.4587 44.4074 46.8576 43.3525 47.8891C42.2976 48.9205 40.8668 49.5 39.375 49.5V52.25C39.375 52.9793 39.0787 53.6788 38.5512 54.1945C38.0238 54.7103 37.3084 55 36.5625 55H33.75C33.0041 55 32.2887 54.7103 31.7613 54.1945C31.2338 53.6788 30.9375 52.9793 30.9375 52.25V49.5ZM5.625 13.75V30.25H19.6875V13.75H5.625ZM25.3125 13.75V30.25H39.375V13.75H25.3125ZM8.4375 5.5V8.25H36.5625V5.5H8.4375ZM9.84375 44C10.9626 44 12.0357 43.5654 12.8269 42.7918C13.618 42.0182 14.0625 40.969 14.0625 39.875C14.0625 38.781 13.618 37.7318 12.8269 36.9582C12.0357 36.1846 10.9626 35.75 9.84375 35.75C8.72487 35.75 7.65181 36.1846 6.86064 36.9582C6.06947 37.7318 5.625 38.781 5.625 39.875C5.625 40.969 6.06947 42.0182 6.86064 42.7918C7.65181 43.5654 8.72487 44 9.84375 44ZM35.1562 44C36.2751 44 37.3482 43.5654 38.1394 42.7918C38.9305 42.0182 39.375 40.969 39.375 39.875C39.375 38.781 38.9305 37.7318 38.1394 36.9582C37.3482 36.1846 36.2751 35.75 35.1562 35.75C34.0374 35.75 32.9643 36.1846 32.1731 36.9582C31.382 37.7318 30.9375 38.781 30.9375 39.875C30.9375 40.969 31.382 42.0182 32.1731 42.7918C32.9643 43.5654 34.0374 44 35.1562 44Z" fill="#157698"/>
</svg>
