<svg width="62" height="62" viewBox="0 0 62 62" fill="none" xmlns="http://www.w3.org/2000/svg">
<path d="M12.7418 46.5836L49.7593 46.5556M30.9988 3C36.9959 3 42.005 7.2 43.2244 12.8031C44.8099 12.3762 46.4645 12.2641 48.0936 12.4734C49.7226 12.6827 51.2943 13.2092 52.7189 14.0229C54.1435 14.8366 55.393 15.9215 56.3962 17.2156C57.3994 18.5098 58.1366 19.9879 58.5657 21.5656C58.9948 23.1432 59.1074 24.7895 58.897 26.4104C58.6867 28.0314 58.1575 29.5952 57.3398 31.0126C56.522 32.4301 55.4317 33.6734 54.131 34.6716C52.8303 35.6698 51.3448 36.4033 49.7593 36.8302V59H12.2384V36.8302C10.6529 36.4029 9.16744 35.669 7.86693 34.6704C6.56642 33.6719 5.47631 32.4282 4.65884 31.0104C3.84138 29.5927 3.31257 28.0286 3.1026 26.4075C2.89264 24.7865 3.00563 23.1401 3.43512 21.5624C3.86462 19.9848 4.60221 18.5068 5.60578 17.2128C6.60936 15.9188 7.85926 14.8341 9.28412 14.0207C10.709 13.2073 12.2809 12.6812 13.9101 12.4723C15.5394 12.2633 17.194 12.3758 18.7796 12.8031C19.3856 10.0267 20.9283 7.54014 23.1512 5.75678C25.3741 3.97343 28.1434 3.00061 30.9988 3Z" stroke="#157698" stroke-width="6" stroke-linecap="round" stroke-linejoin="round"/>
</svg>
