<svg width="48" height="47" viewBox="0 0 48 47" fill="none" xmlns="http://www.w3.org/2000/svg">
<path d="M24 0C10.74 0 0 10.7434 0 23.9941C0 34.5975 6.876 43.5893 16.41 46.7585C17.61 46.9845 18.05 46.2427 18.05 45.6048C18.05 45.035 18.03 43.5253 18.02 41.5258C11.344 42.9735 9.936 38.3066 9.936 38.3066C8.844 35.5373 7.266 34.7975 7.266 34.7975C5.092 33.3098 7.434 33.3398 7.434 33.3398C9.844 33.5078 11.11 35.8112 11.11 35.8112C13.25 39.4803 16.728 38.4206 18.1 37.8067C18.316 36.2551 18.934 35.1974 19.62 34.5975C14.29 33.9977 8.688 31.9342 8.688 22.7404C8.688 20.1211 9.618 17.9816 11.158 16.302C10.888 15.6962 10.078 13.2568 11.368 9.95156C11.368 9.95156 13.378 9.30772 17.968 12.411C19.888 11.8771 21.928 11.6132 23.968 11.6012C26.008 11.6132 28.048 11.8771 29.968 12.411C34.528 9.30772 36.538 9.95156 36.538 9.95156C37.828 13.2568 37.018 15.6962 36.778 16.302C38.308 17.9816 39.238 20.1211 39.238 22.7404C39.238 31.9582 33.628 33.9877 28.288 34.5775C29.128 35.2973 29.908 36.769 29.908 39.0164C29.908 42.2276 29.878 44.807 29.878 45.5868C29.878 46.2167 30.298 46.9665 31.528 46.7266C41.13 43.5793 48 34.5815 48 23.9941C48 10.7434 37.254 0 24 0Z" fill="#157698"/>
</svg>
