<svg width="59" height="59" viewBox="0 0 59 59" fill="none" xmlns="http://www.w3.org/2000/svg">
<path d="M29.5 0C13.2339 0 0 13.2339 0 29.5C0 45.7661 13.2339 59 29.5 59C45.7661 59 59 45.7661 59 29.5C59 13.2339 45.7661 0 29.5 0ZM49.7812 43.1154H43.3678C43.1691 43.1149 42.974 43.0623 42.802 42.9627C42.63 42.8632 42.4872 42.7202 42.3878 42.5481L40.0987 38.6223C39.948 38.3656 39.9042 38.06 39.9768 37.7713L42.0843 29.2731C42.1266 29.1018 42.2082 28.9428 42.3227 28.8087C42.4372 28.6745 42.5814 28.5688 42.7438 28.5001L46.7291 26.8124C46.9239 26.7298 47.1378 26.7033 47.3468 26.7359C47.5559 26.7685 47.7516 26.8588 47.912 26.9968L53.8162 32.077C53.9618 32.2023 54.0731 32.3625 54.1398 32.5426C54.2066 32.7227 54.2265 32.9168 54.1977 33.1067C53.7088 36.4613 52.5367 39.68 50.7542 42.5637C50.6535 42.7318 50.5109 42.8711 50.3404 42.9677C50.1699 43.0644 49.9773 43.1153 49.7812 43.1154ZM12.2709 26.8237L16.2562 28.5115C16.4186 28.5802 16.5628 28.6858 16.6773 28.82C16.7918 28.9542 16.8734 29.1132 16.9157 29.2844L19.0232 37.7827C19.0958 38.0714 19.052 38.377 18.9013 38.6337L16.6122 42.5481C16.5128 42.7202 16.37 42.8632 16.198 42.9627C16.026 43.0623 15.8309 43.1149 15.6322 43.1154H9.21875C9.02478 43.1155 8.83402 43.0659 8.66468 42.9713C8.49534 42.8767 8.35308 42.7403 8.25149 42.575C6.46893 39.6914 5.29691 36.4727 4.80793 33.118C4.77918 32.9281 4.79911 32.734 4.86583 32.5539C4.93256 32.3739 5.04391 32.2137 5.18945 32.0883L11.0937 27.0081C11.2535 26.8712 11.4483 26.7815 11.6561 26.749C11.864 26.7164 12.0769 26.7423 12.2709 26.8237ZM48.7119 14.4507L46.1491 21.7378C46.0976 21.8867 46.0156 22.0233 45.9084 22.1388C45.8012 22.2543 45.6711 22.3462 45.5264 22.4087L41.3312 24.1857C41.1387 24.2672 40.9274 24.2939 40.7207 24.2628C40.514 24.2318 40.3198 24.1443 40.1597 24.0099L32.1805 17.3171C32.053 17.2116 31.9501 17.0795 31.8791 16.93C31.808 16.7806 31.7706 16.6174 31.7692 16.4519V11.6894C31.7693 11.5028 31.8155 11.3191 31.9035 11.1546C31.9916 10.99 32.1189 10.8498 32.2741 10.7462L38.3486 6.69849C38.5071 6.59267 38.6897 6.5285 38.8796 6.51189C39.0695 6.49529 39.2605 6.52678 39.435 6.60346C42.9302 8.12791 46.0321 10.4289 48.5048 13.3317C48.6348 13.4835 48.7224 13.6669 48.7588 13.8634C48.7951 14.0599 48.779 14.2625 48.7119 14.4507ZM20.65 6.69849L26.7259 10.7462C26.8811 10.8498 27.0084 10.99 27.0965 11.1546C27.1845 11.3191 27.2307 11.5028 27.2308 11.6894V16.4519C27.2308 16.6177 27.1944 16.7814 27.1244 16.9316C27.0543 17.0818 26.9522 17.2148 26.8251 17.3213L18.846 24.0141C18.6858 24.1485 18.4917 24.2361 18.285 24.2671C18.0783 24.2981 17.867 24.2714 17.6745 24.19L13.4736 22.4087C13.328 22.347 13.1969 22.2556 13.0887 22.1403C12.9805 22.025 12.8976 21.8884 12.8453 21.7392L10.2825 14.4522C10.2159 14.2632 10.2005 14.0601 10.2378 13.8633C10.2752 13.6665 10.364 13.4831 10.4952 13.3317C12.9694 10.426 16.0737 8.12295 19.5721 6.59779C19.7459 6.52344 19.9356 6.49371 20.1238 6.51129C20.3121 6.52888 20.493 6.59323 20.65 6.69849ZM23.105 53.1411L20.3068 46.0938C20.2428 45.9336 20.2162 45.7609 20.229 45.5888C20.2417 45.4168 20.2936 45.25 20.3805 45.101L22.532 41.4135C22.6314 41.2414 22.7742 41.0984 22.9462 40.9988C23.1182 40.8993 23.3133 40.8466 23.5121 40.8462H35.4879C35.6867 40.8466 35.8818 40.8993 36.0538 40.9988C36.2258 41.0984 36.3686 41.2414 36.468 41.4135L38.6209 45.101C38.7081 45.2498 38.7602 45.4166 38.7732 45.5887C38.7862 45.7607 38.7598 45.9334 38.6961 46.0938L35.9177 53.1383C35.8497 53.3105 35.7407 53.4635 35.6 53.5839C35.4593 53.7043 35.2913 53.7884 35.1107 53.829C31.4238 54.6752 27.5932 54.6752 23.9063 53.829C23.727 53.7879 23.5604 53.7038 23.4208 53.584C23.2812 53.4641 23.1728 53.3122 23.105 53.1411Z" fill="#157698"/>
</svg>
