<svg width="67" height="34" viewBox="0 0 67 34" fill="none" xmlns="http://www.w3.org/2000/svg">
<path d="M50.2561 1.7345e-07H16.7512C13.9897 -0.000400182 11.2709 0.692277 8.83686 2.01636C6.40286 3.34045 4.32919 5.25486 2.80046 7.58916C1.27173 9.92346 0.335371 12.6052 0.0747559 15.3957C-0.18586 18.1861 0.237351 20.9987 1.30671 23.583C2.37607 26.1672 4.0584 28.443 6.20391 30.2078C8.34943 31.9725 10.8916 33.1713 13.604 33.6976C16.3164 34.2239 19.115 34.0613 21.7505 33.2243C24.386 32.3872 26.7768 30.9017 28.7098 28.9H38.2902C40.223 30.9015 42.6134 32.3869 45.2486 33.224C47.8838 34.0611 50.682 34.2239 53.3942 33.698C56.1064 33.1721 58.6484 31.9737 60.7939 30.2095C62.9395 28.4453 64.6221 26.1701 65.6919 23.5864C66.7617 21.0026 67.1855 18.1905 66.9257 15.4003C66.6658 12.6101 65.7304 9.92835 64.2026 7.5938C62.6748 5.25926 60.602 3.34432 58.1688 2.01944C55.7356 0.694555 53.0174 0.000826113 50.2561 1.7345e-07ZM25.963 18.275C25.963 18.6132 25.8307 18.9375 25.5951 19.1766C25.3595 19.4157 25.04 19.55 24.7069 19.55H19.2635V25.075C19.2635 25.4132 19.1312 25.7375 18.8956 25.9766C18.66 26.2157 18.3405 26.35 18.0074 26.35H15.495C15.1619 26.35 14.8424 26.2157 14.6068 25.9766C14.3712 25.7375 14.2389 25.4132 14.2389 25.075V19.55H8.79552C8.46236 19.55 8.14285 19.4157 7.90728 19.1766C7.6717 18.9375 7.53936 18.6132 7.53936 18.275V15.725C7.53936 15.3868 7.6717 15.0625 7.90728 14.8234C8.14285 14.5843 8.46236 14.45 8.79552 14.45H14.2389V8.925C14.2389 8.58685 14.3712 8.26255 14.6068 8.02344C14.8424 7.78433 15.1619 7.65 15.495 7.65H18.0074C18.3405 7.65 18.66 7.78433 18.8956 8.02344C19.1312 8.26255 19.2635 8.58685 19.2635 8.925V14.45H24.7069C25.04 14.45 25.3595 14.5843 25.5951 14.8234C25.8307 15.0625 25.963 15.3868 25.963 15.725V18.275ZM48.5739 26.35C47.7458 26.35 46.9362 26.1007 46.2476 25.6337C45.5591 25.1668 45.0224 24.503 44.7055 23.7264C44.3885 22.9498 44.3056 22.0953 44.4672 21.2709C44.6287 20.4464 45.0275 19.6892 45.6131 19.0948C46.1987 18.5004 46.9448 18.0956 47.757 17.9317C48.5693 17.7677 49.4112 17.8518 50.1763 18.1735C50.9414 18.4952 51.5954 19.0399 52.0555 19.7388C52.5155 20.4377 52.7611 21.2594 52.7611 22.1C52.7611 23.2272 52.32 24.3082 51.5347 25.1052C50.7495 25.9022 49.6844 26.35 48.5739 26.35ZM55.2734 16.15C54.4453 16.15 53.6357 15.9007 52.9472 15.4337C52.2586 14.9668 51.7219 14.303 51.405 13.5264C51.0881 12.7498 51.0051 11.8953 51.1667 11.0709C51.3283 10.2464 51.7271 9.48917 52.3126 8.8948C52.8982 8.30042 53.6443 7.89565 54.4566 7.73166C55.2688 7.56768 56.1107 7.65184 56.8758 7.97351C57.6409 8.29518 58.2949 8.83992 58.755 9.53883C59.2151 10.2377 59.4606 11.0594 59.4606 11.9C59.4606 13.0272 59.0195 14.1082 58.2342 14.9052C57.449 15.7022 56.384 16.15 55.2734 16.15Z" fill="#157698"/>
</svg>
