<svg width="56" height="56" viewBox="0 0 56 56" fill="none" xmlns="http://www.w3.org/2000/svg">
<path d="M21.75 28V47.4444C21.75 48.9179 22.4085 50.3309 23.5806 51.3728C24.7527 52.4147 26.3424 53 28 53C29.6576 53 31.2473 52.4147 32.4194 51.3728C33.5915 50.3309 34.25 48.9179 34.25 47.4444V28M53 25.5C53 13.0722 41.8063 3 28 3C14.1937 3 3 13.0722 3 25.5C3 26.163 3.29632 26.7989 3.82376 27.2678C4.35121 27.7366 5.06658 28 5.8125 28H50.1875C50.9334 28 51.6488 27.7366 52.1762 27.2678C52.7037 26.7989 53 26.163 53 25.5Z" stroke="#157698" stroke-width="6" stroke-linecap="round" stroke-linejoin="round"/>
</svg>
